<?xml version="1.0" encoding="UTF-8"?>
<svg id="Layer_2" data-name="Layer 2" xmlns="http://www.w3.org/2000/svg" viewBox="0 0 735.07 140.89">
  <defs>
    <style>
      .cls-1 {
        fill: #2ac9b0;
      }
    </style>
  </defs>
  <g id="Layer_1-2" data-name="Layer 1">
    <g>
      <path d="M285.93,14.28V127.41c0,1.29-.97,2.32-2.16,2.32h-29.57c-.77,0-1.48-.44-1.87-1.16l-28-52.01c-1.11-2.05-4.03-1.21-4.03,1.17v49.68c0,1.29-.97,2.32-2.16,2.32h-28.09c-1.2,0-2.16-1.04-2.16-2.32V14.28c0-1.29,.97-2.32,2.16-2.32h29.24c.77,0,1.48,.44,1.88,1.16l28.31,52.76c1.1,2.06,4.03,1.21,4.03-1.16V14.28c0-1.29,.97-2.32,2.16-2.32h28.09c1.2,0,2.16,1.04,2.16,2.32h0Z"/>
      <path d="M353.64,11.96c13.81,0,25.56,4.16,35.27,12.46,12.65,10.84,18.98,26.33,18.98,46.47s-6.33,35.48-18.98,46.38c-9.65,8.31-21.61,12.47-35.9,12.47s-26.25-4.16-35.9-12.47c-12.65-10.89-18.98-26.3-18.98-46.22s6.33-36.12,18.98-46.63c9.96-8.31,22.14-12.47,36.53-12.47h0Zm-.95,27.9c-7.07,0-12.57,3.27-16.53,9.82-3.43,5.67-5.14,12.74-5.14,21.21s1.71,15.46,5.14,21.13c3.96,6.55,9.57,9.82,16.84,9.82s12.88-3.27,16.84-9.82c3.43-5.72,5.14-12.74,5.14-21.04s-1.71-15.73-5.14-21.3c-4-6.56-9.72-9.83-17.16-9.83h0Z"/>
      <path d="M442.42,114.58l-4.24,13.57c-.3,.95-1.12,1.59-2.05,1.59h-27.68c-1.5,0-2.54-1.6-2.03-3.11L444.45,13.5c.31-.92,1.12-1.54,2.03-1.54h29.61c.91,0,1.72,.61,2.03,1.54l38.04,113.13c.51,1.52-.54,3.11-2.03,3.11h-28.61c-.94,0-1.77-.65-2.06-1.61l-4.03-13.51c-.28-.97-1.12-1.61-2.06-1.61h-32.92c-.92,0-1.75,.64-2.04,1.59h0Zm11.04-25.93h15.19c1.46,0,2.5-1.53,2.06-3.02l-7.28-24.9c-.62-2.14-3.43-2.18-4.11-.06l-7.9,24.9c-.48,1.51,.56,3.08,2.04,3.08Z"/>
      <path d="M627.62,14.28V127.41c0,1.29-.97,2.32-2.16,2.32h-29.57c-.77,0-1.48-.44-1.87-1.16l-28-52.01c-1.11-2.05-4.03-1.21-4.03,1.17v49.68c0,1.29-.97,2.32-2.16,2.32h-28.09c-1.2,0-2.16-1.04-2.16-2.32V14.28c0-1.29,.97-2.32,2.16-2.32h29.24c.77,0,1.48,.44,1.88,1.16l28.31,52.76c1.1,2.06,4.03,1.21,4.03-1.16V14.28c0-1.29,.97-2.32,2.16-2.32h28.09c1.2,0,2.16,1.04,2.16,2.32h0Z"/>
      <path d="M647.16,14.28v25.99c0,1.29,.95,2.32,2.11,2.32h83.68c1.17,0,2.11-1.04,2.11-2.32V14.28c0-1.29-.95-2.32-2.11-2.32h-83.68c-1.17,0-2.11,1.04-2.11,2.32Z"/>
      <path d="M647.16,101.44v25.98c0,1.29,.95,2.32,2.11,2.32h83.68c1.17,0,2.11-1.04,2.11-2.32v-25.98c0-1.29-.95-2.32-2.11-2.32h-83.68c-1.17,0-2.11,1.04-2.11,2.32Z"/>
      <path d="M721.8,81v-21.24c0-1.29-.95-2.32-2.11-2.32h-70.41c-1.17,0-2.11,1.04-2.11,2.32v21.24c0,1.29,.95,2.32,2.11,2.32h70.41c1.17,0,2.11-1.04,2.11-2.32h0Z"/>
    </g>
    <path class="cls-1" d="M70.44,0C31.54,0,0,31.54,0,70.44s31.54,70.44,70.44,70.44,70.44-31.54,70.44-70.44S109.35,0,70.44,0ZM37.8,62.8c0-.89,.7-1.6,1.57-1.6h52.28c.87,0,1.57,.72,1.57,1.6v14.65c0,.88-.7,1.6-1.57,1.6H39.37c-.87,0-1.57-.72-1.57-1.6v-14.65Zm65.29,46.68c0,.89-.7,1.6-1.57,1.6H39.37c-.87,0-1.57-.72-1.57-1.6v-17.92c0-.89,.7-1.6,1.57-1.6h62.14c.87,0,1.57,.72,1.57,1.6v17.92h0Zm0-60.13c0,.89-.7,1.6-1.57,1.6H39.37c-.87,0-1.57-.72-1.57-1.6V31.41c0-.89,.7-1.6,1.57-1.6h62.14c.87,0,1.57,.72,1.57,1.6v17.93h0Z"/>
  </g>
</svg>